<mxfile host="Electron" modified="2023-09-17T15:52:17.514Z" agent="Mozilla/5.0 (Windows NT 10.0; Win64; x64) AppleWebKit/537.36 (KHTML, like Gecko) draw.io/21.6.8 Chrome/114.0.5735.289 Electron/25.5.0 Safari/537.36" etag="KV_g06-x64bk_One5r_c" version="21.6.8" type="device">
  <diagram id="C5RBs43oDa-KdzZeNtuy" name="Page-1">
    <mxGraphModel dx="3754" dy="2411" grid="1" gridSize="10" guides="1" tooltips="1" connect="1" arrows="1" fold="1" page="1" pageScale="1" pageWidth="827" pageHeight="1169" background="none" math="0" shadow="0">
      <root>
        <mxCell id="WIyWlLk6GJQsqaUBKTNV-0" />
        <mxCell id="WIyWlLk6GJQsqaUBKTNV-1" parent="WIyWlLk6GJQsqaUBKTNV-0" />
        <mxCell id="6TVAX0fbJn5HLJftzAtB-53" style="edgeStyle=orthogonalEdgeStyle;rounded=0;orthogonalLoop=1;jettySize=auto;html=1;" parent="WIyWlLk6GJQsqaUBKTNV-1" source="6TVAX0fbJn5HLJftzAtB-0" target="6TVAX0fbJn5HLJftzAtB-1" edge="1">
          <mxGeometry relative="1" as="geometry" />
        </mxCell>
        <mxCell id="6TVAX0fbJn5HLJftzAtB-0" value="Landing Page" style="rounded=0;whiteSpace=wrap;html=1;" parent="WIyWlLk6GJQsqaUBKTNV-1" vertex="1">
          <mxGeometry x="350" y="-510" width="120" height="60" as="geometry" />
        </mxCell>
        <mxCell id="6TVAX0fbJn5HLJftzAtB-4" value="" style="edgeStyle=orthogonalEdgeStyle;rounded=0;orthogonalLoop=1;jettySize=auto;html=1;" parent="WIyWlLk6GJQsqaUBKTNV-1" source="6TVAX0fbJn5HLJftzAtB-1" target="6TVAX0fbJn5HLJftzAtB-3" edge="1">
          <mxGeometry relative="1" as="geometry" />
        </mxCell>
        <mxCell id="6TVAX0fbJn5HLJftzAtB-130" style="edgeStyle=orthogonalEdgeStyle;rounded=0;orthogonalLoop=1;jettySize=auto;html=1;exitX=0.5;exitY=1;exitDx=0;exitDy=0;entryX=0.5;entryY=0;entryDx=0;entryDy=0;" parent="WIyWlLk6GJQsqaUBKTNV-1" source="6TVAX0fbJn5HLJftzAtB-1" target="6TVAX0fbJn5HLJftzAtB-128" edge="1">
          <mxGeometry relative="1" as="geometry" />
        </mxCell>
        <mxCell id="6TVAX0fbJn5HLJftzAtB-1" value="is logged in?" style="rhombus;whiteSpace=wrap;html=1;rounded=0;" parent="WIyWlLk6GJQsqaUBKTNV-1" vertex="1">
          <mxGeometry x="355" y="160" width="110" height="100" as="geometry" />
        </mxCell>
        <mxCell id="6TVAX0fbJn5HLJftzAtB-6" value="" style="edgeStyle=orthogonalEdgeStyle;rounded=0;orthogonalLoop=1;jettySize=auto;html=1;" parent="WIyWlLk6GJQsqaUBKTNV-1" source="6TVAX0fbJn5HLJftzAtB-3" target="6TVAX0fbJn5HLJftzAtB-5" edge="1">
          <mxGeometry relative="1" as="geometry" />
        </mxCell>
        <mxCell id="6TVAX0fbJn5HLJftzAtB-3" value="Login Page" style="whiteSpace=wrap;html=1;rounded=0;" parent="WIyWlLk6GJQsqaUBKTNV-1" vertex="1">
          <mxGeometry x="170" y="280" width="120" height="40" as="geometry" />
        </mxCell>
        <mxCell id="6TVAX0fbJn5HLJftzAtB-10" value="" style="edgeStyle=orthogonalEdgeStyle;rounded=0;orthogonalLoop=1;jettySize=auto;html=1;" parent="WIyWlLk6GJQsqaUBKTNV-1" source="6TVAX0fbJn5HLJftzAtB-5" target="6TVAX0fbJn5HLJftzAtB-9" edge="1">
          <mxGeometry relative="1" as="geometry" />
        </mxCell>
        <mxCell id="6TVAX0fbJn5HLJftzAtB-18" value="" style="edgeStyle=orthogonalEdgeStyle;rounded=0;orthogonalLoop=1;jettySize=auto;html=1;" parent="WIyWlLk6GJQsqaUBKTNV-1" source="6TVAX0fbJn5HLJftzAtB-5" target="6TVAX0fbJn5HLJftzAtB-17" edge="1">
          <mxGeometry relative="1" as="geometry" />
        </mxCell>
        <mxCell id="6TVAX0fbJn5HLJftzAtB-5" value="Account Exist?" style="rhombus;whiteSpace=wrap;html=1;rounded=0;" parent="WIyWlLk6GJQsqaUBKTNV-1" vertex="1">
          <mxGeometry x="-30" y="245" width="110" height="110" as="geometry" />
        </mxCell>
        <mxCell id="6TVAX0fbJn5HLJftzAtB-129" value="" style="edgeStyle=orthogonalEdgeStyle;rounded=0;orthogonalLoop=1;jettySize=auto;html=1;entryX=0;entryY=0.5;entryDx=0;entryDy=0;" parent="WIyWlLk6GJQsqaUBKTNV-1" source="6TVAX0fbJn5HLJftzAtB-9" target="6TVAX0fbJn5HLJftzAtB-128" edge="1">
          <mxGeometry relative="1" as="geometry">
            <Array as="points" />
          </mxGeometry>
        </mxCell>
        <mxCell id="6TVAX0fbJn5HLJftzAtB-9" value="Log in" style="ellipse;whiteSpace=wrap;html=1;rounded=0;" parent="WIyWlLk6GJQsqaUBKTNV-1" vertex="1">
          <mxGeometry x="-15" y="430" width="80" height="80" as="geometry" />
        </mxCell>
        <mxCell id="6TVAX0fbJn5HLJftzAtB-13" value="No" style="text;html=1;strokeColor=none;fillColor=none;align=center;verticalAlign=middle;whiteSpace=wrap;rounded=0;" parent="WIyWlLk6GJQsqaUBKTNV-1" vertex="1">
          <mxGeometry x="270" y="180" width="60" height="30" as="geometry" />
        </mxCell>
        <mxCell id="6TVAX0fbJn5HLJftzAtB-14" value="" style="edgeStyle=orthogonalEdgeStyle;rounded=0;orthogonalLoop=1;jettySize=auto;html=1;" parent="WIyWlLk6GJQsqaUBKTNV-1" edge="1">
          <mxGeometry relative="1" as="geometry">
            <mxPoint x="408.82" y="-550" as="sourcePoint" />
            <mxPoint x="408.82" y="-510" as="targetPoint" />
          </mxGeometry>
        </mxCell>
        <mxCell id="6TVAX0fbJn5HLJftzAtB-15" value="No" style="text;html=1;strokeColor=none;fillColor=none;align=center;verticalAlign=middle;whiteSpace=wrap;rounded=0;" parent="WIyWlLk6GJQsqaUBKTNV-1" vertex="1">
          <mxGeometry x="20" y="180" width="60" height="30" as="geometry" />
        </mxCell>
        <mxCell id="6TVAX0fbJn5HLJftzAtB-20" value="" style="edgeStyle=orthogonalEdgeStyle;rounded=0;orthogonalLoop=1;jettySize=auto;html=1;" parent="WIyWlLk6GJQsqaUBKTNV-1" source="6TVAX0fbJn5HLJftzAtB-17" target="6TVAX0fbJn5HLJftzAtB-19" edge="1">
          <mxGeometry relative="1" as="geometry" />
        </mxCell>
        <mxCell id="6TVAX0fbJn5HLJftzAtB-27" value="" style="edgeStyle=orthogonalEdgeStyle;rounded=0;orthogonalLoop=1;jettySize=auto;html=1;" parent="WIyWlLk6GJQsqaUBKTNV-1" source="6TVAX0fbJn5HLJftzAtB-17" target="6TVAX0fbJn5HLJftzAtB-26" edge="1">
          <mxGeometry relative="1" as="geometry" />
        </mxCell>
        <mxCell id="6TVAX0fbJn5HLJftzAtB-17" value="Create Account" style="whiteSpace=wrap;html=1;rounded=0;" parent="WIyWlLk6GJQsqaUBKTNV-1" vertex="1">
          <mxGeometry x="-35" y="80" width="120" height="60" as="geometry" />
        </mxCell>
        <mxCell id="6TVAX0fbJn5HLJftzAtB-93" value="" style="edgeStyle=orthogonalEdgeStyle;rounded=0;orthogonalLoop=1;jettySize=auto;html=1;" parent="WIyWlLk6GJQsqaUBKTNV-1" source="6TVAX0fbJn5HLJftzAtB-19" target="6TVAX0fbJn5HLJftzAtB-92" edge="1">
          <mxGeometry relative="1" as="geometry" />
        </mxCell>
        <mxCell id="6TVAX0fbJn5HLJftzAtB-19" value="Account creation" style="ellipse;whiteSpace=wrap;html=1;rounded=0;" parent="WIyWlLk6GJQsqaUBKTNV-1" vertex="1">
          <mxGeometry x="-235" y="70" width="80" height="80" as="geometry" />
        </mxCell>
        <mxCell id="6TVAX0fbJn5HLJftzAtB-24" value="" style="edgeStyle=orthogonalEdgeStyle;rounded=0;orthogonalLoop=1;jettySize=auto;html=1;" parent="WIyWlLk6GJQsqaUBKTNV-1" source="6TVAX0fbJn5HLJftzAtB-21" target="6TVAX0fbJn5HLJftzAtB-23" edge="1">
          <mxGeometry relative="1" as="geometry" />
        </mxCell>
        <mxCell id="6TVAX0fbJn5HLJftzAtB-21" value="Authentication Page" style="whiteSpace=wrap;html=1;rounded=0;" parent="WIyWlLk6GJQsqaUBKTNV-1" vertex="1">
          <mxGeometry x="-235" y="240" width="120" height="60" as="geometry" />
        </mxCell>
        <mxCell id="6TVAX0fbJn5HLJftzAtB-25" style="edgeStyle=orthogonalEdgeStyle;rounded=0;orthogonalLoop=1;jettySize=auto;html=1;exitX=1;exitY=0.5;exitDx=0;exitDy=0;" parent="WIyWlLk6GJQsqaUBKTNV-1" source="6TVAX0fbJn5HLJftzAtB-23" target="6TVAX0fbJn5HLJftzAtB-9" edge="1">
          <mxGeometry relative="1" as="geometry" />
        </mxCell>
        <mxCell id="6TVAX0fbJn5HLJftzAtB-35" value="" style="edgeStyle=orthogonalEdgeStyle;rounded=0;orthogonalLoop=1;jettySize=auto;html=1;" parent="WIyWlLk6GJQsqaUBKTNV-1" source="6TVAX0fbJn5HLJftzAtB-23" target="6TVAX0fbJn5HLJftzAtB-34" edge="1">
          <mxGeometry relative="1" as="geometry" />
        </mxCell>
        <mxCell id="6TVAX0fbJn5HLJftzAtB-23" value="Authenticate" style="ellipse;whiteSpace=wrap;html=1;rounded=0;" parent="WIyWlLk6GJQsqaUBKTNV-1" vertex="1">
          <mxGeometry x="-215" y="370" width="80" height="80" as="geometry" />
        </mxCell>
        <mxCell id="6TVAX0fbJn5HLJftzAtB-29" value="" style="edgeStyle=orthogonalEdgeStyle;rounded=0;orthogonalLoop=1;jettySize=auto;html=1;" parent="WIyWlLk6GJQsqaUBKTNV-1" source="6TVAX0fbJn5HLJftzAtB-26" target="6TVAX0fbJn5HLJftzAtB-28" edge="1">
          <mxGeometry relative="1" as="geometry" />
        </mxCell>
        <mxCell id="6TVAX0fbJn5HLJftzAtB-26" value="Third party services" style="ellipse;whiteSpace=wrap;html=1;rounded=0;" parent="WIyWlLk6GJQsqaUBKTNV-1" vertex="1">
          <mxGeometry x="-15" y="-70" width="80" height="80" as="geometry" />
        </mxCell>
        <mxCell id="6TVAX0fbJn5HLJftzAtB-31" value="" style="edgeStyle=orthogonalEdgeStyle;rounded=0;orthogonalLoop=1;jettySize=auto;html=1;" parent="WIyWlLk6GJQsqaUBKTNV-1" source="6TVAX0fbJn5HLJftzAtB-28" target="6TVAX0fbJn5HLJftzAtB-30" edge="1">
          <mxGeometry relative="1" as="geometry" />
        </mxCell>
        <mxCell id="6TVAX0fbJn5HLJftzAtB-39" style="edgeStyle=orthogonalEdgeStyle;rounded=0;orthogonalLoop=1;jettySize=auto;html=1;exitX=0.5;exitY=0;exitDx=0;exitDy=0;entryX=0.5;entryY=0;entryDx=0;entryDy=0;" parent="WIyWlLk6GJQsqaUBKTNV-1" source="6TVAX0fbJn5HLJftzAtB-28" target="6TVAX0fbJn5HLJftzAtB-28" edge="1">
          <mxGeometry relative="1" as="geometry">
            <mxPoint x="25.05882352941171" y="-280" as="targetPoint" />
          </mxGeometry>
        </mxCell>
        <mxCell id="6TVAX0fbJn5HLJftzAtB-41" value="" style="edgeStyle=orthogonalEdgeStyle;rounded=0;orthogonalLoop=1;jettySize=auto;html=1;" parent="WIyWlLk6GJQsqaUBKTNV-1" source="6TVAX0fbJn5HLJftzAtB-28" target="6TVAX0fbJn5HLJftzAtB-40" edge="1">
          <mxGeometry relative="1" as="geometry" />
        </mxCell>
        <mxCell id="6TVAX0fbJn5HLJftzAtB-28" value="Sign up with X&lt;br&gt;&amp;nbsp;page" style="whiteSpace=wrap;html=1;rounded=0;" parent="WIyWlLk6GJQsqaUBKTNV-1" vertex="1">
          <mxGeometry x="-35" y="-220" width="120" height="60" as="geometry" />
        </mxCell>
        <mxCell id="6TVAX0fbJn5HLJftzAtB-32" style="edgeStyle=orthogonalEdgeStyle;rounded=0;orthogonalLoop=1;jettySize=auto;html=1;entryX=0.5;entryY=0;entryDx=0;entryDy=0;" parent="WIyWlLk6GJQsqaUBKTNV-1" source="6TVAX0fbJn5HLJftzAtB-30" target="6TVAX0fbJn5HLJftzAtB-19" edge="1">
          <mxGeometry relative="1" as="geometry" />
        </mxCell>
        <mxCell id="6TVAX0fbJn5HLJftzAtB-30" value="Information&lt;br&gt;Retrival" style="ellipse;whiteSpace=wrap;html=1;rounded=0;" parent="WIyWlLk6GJQsqaUBKTNV-1" vertex="1">
          <mxGeometry x="-235" y="-230" width="80" height="80" as="geometry" />
        </mxCell>
        <mxCell id="6TVAX0fbJn5HLJftzAtB-33" value="Success" style="text;html=1;strokeColor=none;fillColor=none;align=center;verticalAlign=middle;whiteSpace=wrap;rounded=0;" parent="WIyWlLk6GJQsqaUBKTNV-1" vertex="1">
          <mxGeometry x="-130" y="370" width="60" height="30" as="geometry" />
        </mxCell>
        <mxCell id="6TVAX0fbJn5HLJftzAtB-36" style="edgeStyle=orthogonalEdgeStyle;rounded=0;orthogonalLoop=1;jettySize=auto;html=1;entryX=0.426;entryY=-0.09;entryDx=0;entryDy=0;entryPerimeter=0;" parent="WIyWlLk6GJQsqaUBKTNV-1" source="6TVAX0fbJn5HLJftzAtB-34" target="6TVAX0fbJn5HLJftzAtB-28" edge="1">
          <mxGeometry relative="1" as="geometry">
            <mxPoint x="30" y="-300" as="targetPoint" />
            <Array as="points">
              <mxPoint x="-680" y="570" />
              <mxPoint x="-680" y="-380" />
              <mxPoint x="16" y="-380" />
            </Array>
          </mxGeometry>
        </mxCell>
        <mxCell id="6TVAX0fbJn5HLJftzAtB-34" value="failure page" style="whiteSpace=wrap;html=1;rounded=0;" parent="WIyWlLk6GJQsqaUBKTNV-1" vertex="1">
          <mxGeometry x="-235" y="540" width="120" height="60" as="geometry" />
        </mxCell>
        <mxCell id="6TVAX0fbJn5HLJftzAtB-42" style="edgeStyle=orthogonalEdgeStyle;rounded=0;orthogonalLoop=1;jettySize=auto;html=1;entryX=1;entryY=0.5;entryDx=0;entryDy=0;" parent="WIyWlLk6GJQsqaUBKTNV-1" source="6TVAX0fbJn5HLJftzAtB-40" target="6TVAX0fbJn5HLJftzAtB-17" edge="1">
          <mxGeometry relative="1" as="geometry">
            <Array as="points">
              <mxPoint x="225" y="110" />
            </Array>
          </mxGeometry>
        </mxCell>
        <mxCell id="6TVAX0fbJn5HLJftzAtB-40" value="Cancellation" style="ellipse;whiteSpace=wrap;html=1;rounded=0;" parent="WIyWlLk6GJQsqaUBKTNV-1" vertex="1">
          <mxGeometry x="185" y="-230" width="80" height="80" as="geometry" />
        </mxCell>
        <mxCell id="6TVAX0fbJn5HLJftzAtB-43" value="Failure" style="text;html=1;strokeColor=none;fillColor=none;align=center;verticalAlign=middle;whiteSpace=wrap;rounded=0;" parent="WIyWlLk6GJQsqaUBKTNV-1" vertex="1">
          <mxGeometry x="-175" y="480" width="60" height="30" as="geometry" />
        </mxCell>
        <mxCell id="6TVAX0fbJn5HLJftzAtB-46" value="Yes" style="text;html=1;strokeColor=none;fillColor=none;align=center;verticalAlign=middle;whiteSpace=wrap;rounded=0;" parent="WIyWlLk6GJQsqaUBKTNV-1" vertex="1">
          <mxGeometry x="410" y="285" width="60" height="30" as="geometry" />
        </mxCell>
        <mxCell id="6TVAX0fbJn5HLJftzAtB-47" value="Yes" style="text;html=1;strokeColor=none;fillColor=none;align=center;verticalAlign=middle;whiteSpace=wrap;rounded=0;" parent="WIyWlLk6GJQsqaUBKTNV-1" vertex="1">
          <mxGeometry x="25" y="355" width="60" height="30" as="geometry" />
        </mxCell>
        <mxCell id="6TVAX0fbJn5HLJftzAtB-63" value="Dashboard : Home page" style="swimlane;whiteSpace=wrap;html=1;" parent="WIyWlLk6GJQsqaUBKTNV-1" vertex="1">
          <mxGeometry x="-1300" y="780" width="910" height="630" as="geometry" />
        </mxCell>
        <mxCell id="6TVAX0fbJn5HLJftzAtB-55" value="" style="edgeStyle=orthogonalEdgeStyle;rounded=0;orthogonalLoop=1;jettySize=auto;html=1;entryX=0.5;entryY=0;entryDx=0;entryDy=0;" parent="6TVAX0fbJn5HLJftzAtB-63" source="6TVAX0fbJn5HLJftzAtB-11" target="6TVAX0fbJn5HLJftzAtB-56" edge="1">
          <mxGeometry relative="1" as="geometry">
            <mxPoint x="465" y="140" as="targetPoint" />
          </mxGeometry>
        </mxCell>
        <mxCell id="6TVAX0fbJn5HLJftzAtB-59" style="edgeStyle=orthogonalEdgeStyle;rounded=0;orthogonalLoop=1;jettySize=auto;html=1;exitX=0.375;exitY=1;exitDx=0;exitDy=0;entryX=0.5;entryY=0;entryDx=0;entryDy=0;" parent="6TVAX0fbJn5HLJftzAtB-63" source="6TVAX0fbJn5HLJftzAtB-56" target="6TVAX0fbJn5HLJftzAtB-64" edge="1">
          <mxGeometry relative="1" as="geometry">
            <mxPoint x="260" y="320" as="targetPoint" />
            <Array as="points">
              <mxPoint x="450" y="270" />
              <mxPoint x="260" y="270" />
            </Array>
          </mxGeometry>
        </mxCell>
        <mxCell id="6TVAX0fbJn5HLJftzAtB-60" style="edgeStyle=orthogonalEdgeStyle;rounded=0;orthogonalLoop=1;jettySize=auto;html=1;exitX=0.625;exitY=1;exitDx=0;exitDy=0;entryX=0.5;entryY=0;entryDx=0;entryDy=0;" parent="6TVAX0fbJn5HLJftzAtB-63" source="6TVAX0fbJn5HLJftzAtB-56" target="6TVAX0fbJn5HLJftzAtB-65" edge="1">
          <mxGeometry relative="1" as="geometry">
            <mxPoint x="580" y="320" as="targetPoint" />
            <Array as="points">
              <mxPoint x="490" y="240" />
            </Array>
          </mxGeometry>
        </mxCell>
        <mxCell id="6TVAX0fbJn5HLJftzAtB-61" style="edgeStyle=orthogonalEdgeStyle;rounded=0;orthogonalLoop=1;jettySize=auto;html=1;exitX=1;exitY=0.5;exitDx=0;exitDy=0;entryX=0.5;entryY=0;entryDx=0;entryDy=0;" parent="6TVAX0fbJn5HLJftzAtB-63" source="6TVAX0fbJn5HLJftzAtB-56" target="6TVAX0fbJn5HLJftzAtB-66" edge="1">
          <mxGeometry relative="1" as="geometry">
            <mxPoint x="680" y="290" as="targetPoint" />
          </mxGeometry>
        </mxCell>
        <mxCell id="6TVAX0fbJn5HLJftzAtB-56" value="Service selection" style="shape=hexagon;perimeter=hexagonPerimeter2;whiteSpace=wrap;html=1;fixedSize=1;" parent="6TVAX0fbJn5HLJftzAtB-63" vertex="1">
          <mxGeometry x="405" y="160" width="120" height="80" as="geometry" />
        </mxCell>
        <mxCell id="6TVAX0fbJn5HLJftzAtB-62" value="Featured Events" style="shape=parallelogram;perimeter=parallelogramPerimeter;whiteSpace=wrap;html=1;fixedSize=1;" parent="6TVAX0fbJn5HLJftzAtB-63" vertex="1">
          <mxGeometry x="40" y="270" width="120" height="60" as="geometry" />
        </mxCell>
        <mxCell id="6TVAX0fbJn5HLJftzAtB-58" style="edgeStyle=orthogonalEdgeStyle;rounded=0;orthogonalLoop=1;jettySize=auto;html=1;" parent="6TVAX0fbJn5HLJftzAtB-63" source="6TVAX0fbJn5HLJftzAtB-56" target="6TVAX0fbJn5HLJftzAtB-62" edge="1">
          <mxGeometry relative="1" as="geometry">
            <mxPoint x="180" y="270" as="targetPoint" />
          </mxGeometry>
        </mxCell>
        <mxCell id="6TVAX0fbJn5HLJftzAtB-11" value="Dashboard&lt;br&gt;(Wire Frame)" style="whiteSpace=wrap;html=1;rounded=0;" parent="6TVAX0fbJn5HLJftzAtB-63" vertex="1">
          <mxGeometry x="405" y="40" width="120" height="60" as="geometry" />
        </mxCell>
        <mxCell id="6TVAX0fbJn5HLJftzAtB-64" value="Latest Events" style="shape=parallelogram;perimeter=parallelogramPerimeter;whiteSpace=wrap;html=1;fixedSize=1;" parent="6TVAX0fbJn5HLJftzAtB-63" vertex="1">
          <mxGeometry x="200" y="310" width="120" height="60" as="geometry" />
        </mxCell>
        <mxCell id="6TVAX0fbJn5HLJftzAtB-70" style="edgeStyle=orthogonalEdgeStyle;rounded=0;orthogonalLoop=1;jettySize=auto;html=1;exitX=0.5;exitY=1;exitDx=0;exitDy=0;entryX=1;entryY=0.5;entryDx=0;entryDy=0;" parent="6TVAX0fbJn5HLJftzAtB-63" source="6TVAX0fbJn5HLJftzAtB-65" target="6TVAX0fbJn5HLJftzAtB-69" edge="1">
          <mxGeometry relative="1" as="geometry" />
        </mxCell>
        <mxCell id="6TVAX0fbJn5HLJftzAtB-65" value="Updates in Location" style="shape=parallelogram;perimeter=parallelogramPerimeter;whiteSpace=wrap;html=1;fixedSize=1;" parent="6TVAX0fbJn5HLJftzAtB-63" vertex="1">
          <mxGeometry x="405" y="340" width="170" height="70" as="geometry" />
        </mxCell>
        <mxCell id="6TVAX0fbJn5HLJftzAtB-73" style="edgeStyle=orthogonalEdgeStyle;rounded=0;orthogonalLoop=1;jettySize=auto;html=1;exitX=0.5;exitY=1;exitDx=0;exitDy=0;entryX=0.5;entryY=1;entryDx=0;entryDy=0;" parent="6TVAX0fbJn5HLJftzAtB-63" source="6TVAX0fbJn5HLJftzAtB-66" target="6TVAX0fbJn5HLJftzAtB-69" edge="1">
          <mxGeometry relative="1" as="geometry" />
        </mxCell>
        <mxCell id="6TVAX0fbJn5HLJftzAtB-66" value="Updates in radius" style="shape=parallelogram;perimeter=parallelogramPerimeter;whiteSpace=wrap;html=1;fixedSize=1;" parent="6TVAX0fbJn5HLJftzAtB-63" vertex="1">
          <mxGeometry x="650" y="320" width="140" height="60" as="geometry" />
        </mxCell>
        <mxCell id="6TVAX0fbJn5HLJftzAtB-71" style="edgeStyle=orthogonalEdgeStyle;rounded=0;orthogonalLoop=1;jettySize=auto;html=1;exitX=0;exitY=0.5;exitDx=0;exitDy=0;entryX=0.5;entryY=1;entryDx=0;entryDy=0;" parent="6TVAX0fbJn5HLJftzAtB-63" source="6TVAX0fbJn5HLJftzAtB-69" target="6TVAX0fbJn5HLJftzAtB-62" edge="1">
          <mxGeometry relative="1" as="geometry" />
        </mxCell>
        <mxCell id="6TVAX0fbJn5HLJftzAtB-72" style="edgeStyle=orthogonalEdgeStyle;rounded=0;orthogonalLoop=1;jettySize=auto;html=1;exitX=0.5;exitY=0;exitDx=0;exitDy=0;entryX=0.5;entryY=1;entryDx=0;entryDy=0;" parent="6TVAX0fbJn5HLJftzAtB-63" source="6TVAX0fbJn5HLJftzAtB-69" target="6TVAX0fbJn5HLJftzAtB-64" edge="1">
          <mxGeometry relative="1" as="geometry">
            <Array as="points">
              <mxPoint x="330" y="490" />
              <mxPoint x="260" y="490" />
            </Array>
          </mxGeometry>
        </mxCell>
        <mxCell id="6TVAX0fbJn5HLJftzAtB-69" value="Updates fetching" style="ellipse;whiteSpace=wrap;html=1;aspect=fixed;" parent="6TVAX0fbJn5HLJftzAtB-63" vertex="1">
          <mxGeometry x="290" y="450" width="80" height="80" as="geometry" />
        </mxCell>
        <mxCell id="6TVAX0fbJn5HLJftzAtB-95" value="" style="edgeStyle=orthogonalEdgeStyle;rounded=0;orthogonalLoop=1;jettySize=auto;html=1;" parent="WIyWlLk6GJQsqaUBKTNV-1" source="6TVAX0fbJn5HLJftzAtB-92" target="6TVAX0fbJn5HLJftzAtB-94" edge="1">
          <mxGeometry relative="1" as="geometry" />
        </mxCell>
        <mxCell id="6TVAX0fbJn5HLJftzAtB-108" value="" style="edgeStyle=orthogonalEdgeStyle;rounded=0;orthogonalLoop=1;jettySize=auto;html=1;" parent="WIyWlLk6GJQsqaUBKTNV-1" source="6TVAX0fbJn5HLJftzAtB-92" target="6TVAX0fbJn5HLJftzAtB-107" edge="1">
          <mxGeometry relative="1" as="geometry" />
        </mxCell>
        <mxCell id="6TVAX0fbJn5HLJftzAtB-92" value="Organization Account?" style="rhombus;whiteSpace=wrap;html=1;rounded=0;" parent="WIyWlLk6GJQsqaUBKTNV-1" vertex="1">
          <mxGeometry x="-430" y="50" width="120" height="120" as="geometry" />
        </mxCell>
        <mxCell id="6TVAX0fbJn5HLJftzAtB-98" value="" style="edgeStyle=orthogonalEdgeStyle;rounded=0;orthogonalLoop=1;jettySize=auto;html=1;" parent="WIyWlLk6GJQsqaUBKTNV-1" source="6TVAX0fbJn5HLJftzAtB-94" target="6TVAX0fbJn5HLJftzAtB-97" edge="1">
          <mxGeometry relative="1" as="geometry" />
        </mxCell>
        <mxCell id="6TVAX0fbJn5HLJftzAtB-94" value="Organization Account creation page" style="whiteSpace=wrap;html=1;rounded=0;" parent="WIyWlLk6GJQsqaUBKTNV-1" vertex="1">
          <mxGeometry x="-435" y="-120" width="130" height="70" as="geometry" />
        </mxCell>
        <mxCell id="6TVAX0fbJn5HLJftzAtB-100" value="" style="edgeStyle=orthogonalEdgeStyle;rounded=0;orthogonalLoop=1;jettySize=auto;html=1;" parent="WIyWlLk6GJQsqaUBKTNV-1" source="6TVAX0fbJn5HLJftzAtB-97" target="6TVAX0fbJn5HLJftzAtB-99" edge="1">
          <mxGeometry relative="1" as="geometry" />
        </mxCell>
        <mxCell id="6TVAX0fbJn5HLJftzAtB-97" value="background check" style="ellipse;whiteSpace=wrap;html=1;rounded=0;" parent="WIyWlLk6GJQsqaUBKTNV-1" vertex="1">
          <mxGeometry x="-410" y="-275" width="80" height="80" as="geometry" />
        </mxCell>
        <mxCell id="6TVAX0fbJn5HLJftzAtB-102" value="" style="edgeStyle=orthogonalEdgeStyle;rounded=0;orthogonalLoop=1;jettySize=auto;html=1;" parent="WIyWlLk6GJQsqaUBKTNV-1" source="6TVAX0fbJn5HLJftzAtB-99" target="6TVAX0fbJn5HLJftzAtB-101" edge="1">
          <mxGeometry relative="1" as="geometry" />
        </mxCell>
        <mxCell id="6TVAX0fbJn5HLJftzAtB-99" value="validation page" style="whiteSpace=wrap;html=1;rounded=0;" parent="WIyWlLk6GJQsqaUBKTNV-1" vertex="1">
          <mxGeometry x="-590" y="-265" width="120" height="60" as="geometry" />
        </mxCell>
        <mxCell id="6TVAX0fbJn5HLJftzAtB-105" value="" style="edgeStyle=orthogonalEdgeStyle;rounded=0;orthogonalLoop=1;jettySize=auto;html=1;" parent="WIyWlLk6GJQsqaUBKTNV-1" source="6TVAX0fbJn5HLJftzAtB-101" target="6TVAX0fbJn5HLJftzAtB-104" edge="1">
          <mxGeometry relative="1" as="geometry" />
        </mxCell>
        <mxCell id="6TVAX0fbJn5HLJftzAtB-101" value="Validation" style="ellipse;whiteSpace=wrap;html=1;rounded=0;" parent="WIyWlLk6GJQsqaUBKTNV-1" vertex="1">
          <mxGeometry x="-570" y="-135" width="80" height="80" as="geometry" />
        </mxCell>
        <mxCell id="6TVAX0fbJn5HLJftzAtB-103" value="Yes" style="text;html=1;strokeColor=none;fillColor=none;align=center;verticalAlign=middle;whiteSpace=wrap;rounded=0;" parent="WIyWlLk6GJQsqaUBKTNV-1" vertex="1">
          <mxGeometry x="-370" y="-20" width="60" height="30" as="geometry" />
        </mxCell>
        <mxCell id="6TVAX0fbJn5HLJftzAtB-106" style="edgeStyle=orthogonalEdgeStyle;rounded=0;orthogonalLoop=1;jettySize=auto;html=1;entryX=0;entryY=0.5;entryDx=0;entryDy=0;" parent="WIyWlLk6GJQsqaUBKTNV-1" source="6TVAX0fbJn5HLJftzAtB-104" target="6TVAX0fbJn5HLJftzAtB-21" edge="1">
          <mxGeometry relative="1" as="geometry">
            <Array as="points">
              <mxPoint x="-260" y="495" />
              <mxPoint x="-260" y="270" />
            </Array>
          </mxGeometry>
        </mxCell>
        <mxCell id="6TVAX0fbJn5HLJftzAtB-104" value="Confirmation Page" style="whiteSpace=wrap;html=1;rounded=0;" parent="WIyWlLk6GJQsqaUBKTNV-1" vertex="1">
          <mxGeometry x="-590" y="465" width="120" height="60" as="geometry" />
        </mxCell>
        <mxCell id="6TVAX0fbJn5HLJftzAtB-137" style="edgeStyle=orthogonalEdgeStyle;rounded=0;orthogonalLoop=1;jettySize=auto;html=1;entryX=0.75;entryY=0;entryDx=0;entryDy=0;" parent="WIyWlLk6GJQsqaUBKTNV-1" source="6TVAX0fbJn5HLJftzAtB-107" target="6TVAX0fbJn5HLJftzAtB-104" edge="1">
          <mxGeometry relative="1" as="geometry">
            <Array as="points">
              <mxPoint x="-370" y="380" />
              <mxPoint x="-500" y="380" />
            </Array>
          </mxGeometry>
        </mxCell>
        <mxCell id="6TVAX0fbJn5HLJftzAtB-107" value="Personal Account creation page" style="whiteSpace=wrap;html=1;rounded=0;" parent="WIyWlLk6GJQsqaUBKTNV-1" vertex="1">
          <mxGeometry x="-430" y="290" width="120" height="60" as="geometry" />
        </mxCell>
        <mxCell id="6TVAX0fbJn5HLJftzAtB-110" value="No" style="text;html=1;strokeColor=none;fillColor=none;align=center;verticalAlign=middle;whiteSpace=wrap;rounded=0;" parent="WIyWlLk6GJQsqaUBKTNV-1" vertex="1">
          <mxGeometry x="-370" y="195" width="60" height="30" as="geometry" />
        </mxCell>
        <mxCell id="6TVAX0fbJn5HLJftzAtB-111" value="Organization Events page" style="swimlane;whiteSpace=wrap;html=1;" parent="WIyWlLk6GJQsqaUBKTNV-1" vertex="1">
          <mxGeometry x="-175" y="780" width="910" height="630" as="geometry" />
        </mxCell>
        <mxCell id="6TVAX0fbJn5HLJftzAtB-141" style="edgeStyle=orthogonalEdgeStyle;rounded=0;orthogonalLoop=1;jettySize=auto;html=1;entryX=0.5;entryY=0;entryDx=0;entryDy=0;" parent="6TVAX0fbJn5HLJftzAtB-111" source="6TVAX0fbJn5HLJftzAtB-119" target="6TVAX0fbJn5HLJftzAtB-138" edge="1">
          <mxGeometry relative="1" as="geometry" />
        </mxCell>
        <mxCell id="6TVAX0fbJn5HLJftzAtB-143" style="edgeStyle=orthogonalEdgeStyle;rounded=0;orthogonalLoop=1;jettySize=auto;html=1;" parent="6TVAX0fbJn5HLJftzAtB-111" source="6TVAX0fbJn5HLJftzAtB-119" target="6TVAX0fbJn5HLJftzAtB-139" edge="1">
          <mxGeometry relative="1" as="geometry" />
        </mxCell>
        <mxCell id="6TVAX0fbJn5HLJftzAtB-144" style="edgeStyle=orthogonalEdgeStyle;rounded=0;orthogonalLoop=1;jettySize=auto;html=1;exitX=1;exitY=0.5;exitDx=0;exitDy=0;" parent="6TVAX0fbJn5HLJftzAtB-111" source="6TVAX0fbJn5HLJftzAtB-119" target="6TVAX0fbJn5HLJftzAtB-140" edge="1">
          <mxGeometry relative="1" as="geometry" />
        </mxCell>
        <mxCell id="6TVAX0fbJn5HLJftzAtB-119" value="Dashboard&lt;br&gt;(Wire Frame)" style="whiteSpace=wrap;html=1;rounded=0;" parent="6TVAX0fbJn5HLJftzAtB-111" vertex="1">
          <mxGeometry x="405" y="40" width="120" height="70" as="geometry" />
        </mxCell>
        <mxCell id="6TVAX0fbJn5HLJftzAtB-138" value="Past Events" style="ellipse;whiteSpace=wrap;html=1;" parent="6TVAX0fbJn5HLJftzAtB-111" vertex="1">
          <mxGeometry x="175" y="210" width="120" height="80" as="geometry" />
        </mxCell>
        <mxCell id="6TVAX0fbJn5HLJftzAtB-139" value="Scheduled/Listed Events" style="ellipse;whiteSpace=wrap;html=1;" parent="6TVAX0fbJn5HLJftzAtB-111" vertex="1">
          <mxGeometry x="405" y="210" width="120" height="80" as="geometry" />
        </mxCell>
        <mxCell id="6TVAX0fbJn5HLJftzAtB-140" value="On going events" style="ellipse;whiteSpace=wrap;html=1;" parent="6TVAX0fbJn5HLJftzAtB-111" vertex="1">
          <mxGeometry x="625" y="210" width="120" height="80" as="geometry" />
        </mxCell>
        <mxCell id="rG0EDbp5dYGCMiRSjRll-25" style="edgeStyle=orthogonalEdgeStyle;rounded=0;orthogonalLoop=1;jettySize=auto;html=1;exitX=1;exitY=0.5;exitDx=0;exitDy=0;entryX=0;entryY=0.5;entryDx=0;entryDy=0;" edge="1" parent="6TVAX0fbJn5HLJftzAtB-111" source="rG0EDbp5dYGCMiRSjRll-18" target="rG0EDbp5dYGCMiRSjRll-20">
          <mxGeometry relative="1" as="geometry" />
        </mxCell>
        <mxCell id="rG0EDbp5dYGCMiRSjRll-18" value="To" style="shape=parallelogram;perimeter=parallelogramPerimeter;whiteSpace=wrap;html=1;fixedSize=1;" vertex="1" parent="6TVAX0fbJn5HLJftzAtB-111">
          <mxGeometry x="185" y="470" width="120" height="60" as="geometry" />
        </mxCell>
        <mxCell id="rG0EDbp5dYGCMiRSjRll-26" style="edgeStyle=orthogonalEdgeStyle;rounded=0;orthogonalLoop=1;jettySize=auto;html=1;entryX=0.5;entryY=1;entryDx=0;entryDy=0;" edge="1" parent="6TVAX0fbJn5HLJftzAtB-111" source="rG0EDbp5dYGCMiRSjRll-19" target="rG0EDbp5dYGCMiRSjRll-20">
          <mxGeometry relative="1" as="geometry" />
        </mxCell>
        <mxCell id="rG0EDbp5dYGCMiRSjRll-19" value="From" style="shape=parallelogram;perimeter=parallelogramPerimeter;whiteSpace=wrap;html=1;fixedSize=1;" vertex="1" parent="6TVAX0fbJn5HLJftzAtB-111">
          <mxGeometry x="705" y="450" width="120" height="60" as="geometry" />
        </mxCell>
        <mxCell id="rG0EDbp5dYGCMiRSjRll-23" style="edgeStyle=orthogonalEdgeStyle;rounded=0;orthogonalLoop=1;jettySize=auto;html=1;exitX=0.5;exitY=0;exitDx=0;exitDy=0;entryX=0.5;entryY=1;entryDx=0;entryDy=0;" edge="1" parent="6TVAX0fbJn5HLJftzAtB-111" source="rG0EDbp5dYGCMiRSjRll-20" target="6TVAX0fbJn5HLJftzAtB-139">
          <mxGeometry relative="1" as="geometry" />
        </mxCell>
        <mxCell id="rG0EDbp5dYGCMiRSjRll-24" style="edgeStyle=orthogonalEdgeStyle;rounded=0;orthogonalLoop=1;jettySize=auto;html=1;entryX=0.603;entryY=1.032;entryDx=0;entryDy=0;entryPerimeter=0;" edge="1" parent="6TVAX0fbJn5HLJftzAtB-111" source="rG0EDbp5dYGCMiRSjRll-20" target="6TVAX0fbJn5HLJftzAtB-140">
          <mxGeometry relative="1" as="geometry" />
        </mxCell>
        <mxCell id="rG0EDbp5dYGCMiRSjRll-27" style="edgeStyle=orthogonalEdgeStyle;rounded=0;orthogonalLoop=1;jettySize=auto;html=1;exitX=0;exitY=0;exitDx=0;exitDy=0;entryX=0.5;entryY=1;entryDx=0;entryDy=0;" edge="1" parent="6TVAX0fbJn5HLJftzAtB-111" source="rG0EDbp5dYGCMiRSjRll-20" target="6TVAX0fbJn5HLJftzAtB-138">
          <mxGeometry relative="1" as="geometry" />
        </mxCell>
        <mxCell id="rG0EDbp5dYGCMiRSjRll-20" value="Update&lt;br&gt;data" style="ellipse;whiteSpace=wrap;html=1;aspect=fixed;" vertex="1" parent="6TVAX0fbJn5HLJftzAtB-111">
          <mxGeometry x="485" y="370" width="80" height="80" as="geometry" />
        </mxCell>
        <mxCell id="6TVAX0fbJn5HLJftzAtB-132" style="edgeStyle=orthogonalEdgeStyle;rounded=0;orthogonalLoop=1;jettySize=auto;html=1;exitX=0.5;exitY=1;exitDx=0;exitDy=0;entryX=0.515;entryY=0.005;entryDx=0;entryDy=0;entryPerimeter=0;" parent="WIyWlLk6GJQsqaUBKTNV-1" source="6TVAX0fbJn5HLJftzAtB-128" target="6TVAX0fbJn5HLJftzAtB-63" edge="1">
          <mxGeometry relative="1" as="geometry" />
        </mxCell>
        <mxCell id="6TVAX0fbJn5HLJftzAtB-134" style="edgeStyle=orthogonalEdgeStyle;rounded=0;orthogonalLoop=1;jettySize=auto;html=1;exitX=1;exitY=0.5;exitDx=0;exitDy=0;entryX=0.691;entryY=-0.003;entryDx=0;entryDy=0;entryPerimeter=0;" parent="WIyWlLk6GJQsqaUBKTNV-1" source="6TVAX0fbJn5HLJftzAtB-128" target="6TVAX0fbJn5HLJftzAtB-111" edge="1">
          <mxGeometry relative="1" as="geometry">
            <Array as="points">
              <mxPoint x="454" y="470" />
            </Array>
          </mxGeometry>
        </mxCell>
        <mxCell id="6TVAX0fbJn5HLJftzAtB-128" value="Organization Account?" style="rhombus;whiteSpace=wrap;html=1;rounded=0;" parent="WIyWlLk6GJQsqaUBKTNV-1" vertex="1">
          <mxGeometry x="300" y="410" width="120" height="120" as="geometry" />
        </mxCell>
        <mxCell id="6TVAX0fbJn5HLJftzAtB-135" value="Yes" style="text;html=1;strokeColor=none;fillColor=none;align=center;verticalAlign=middle;whiteSpace=wrap;rounded=0;" parent="WIyWlLk6GJQsqaUBKTNV-1" vertex="1">
          <mxGeometry x="460" y="600" width="60" height="30" as="geometry" />
        </mxCell>
        <mxCell id="6TVAX0fbJn5HLJftzAtB-136" value="No" style="text;html=1;strokeColor=none;fillColor=none;align=center;verticalAlign=middle;whiteSpace=wrap;rounded=0;" parent="WIyWlLk6GJQsqaUBKTNV-1" vertex="1">
          <mxGeometry x="295" y="600" width="60" height="30" as="geometry" />
        </mxCell>
        <mxCell id="rG0EDbp5dYGCMiRSjRll-32" style="edgeStyle=orthogonalEdgeStyle;rounded=0;orthogonalLoop=1;jettySize=auto;html=1;exitX=1;exitY=0.5;exitDx=0;exitDy=0;entryX=0.245;entryY=0.963;entryDx=0;entryDy=0;entryPerimeter=0;" edge="1" parent="WIyWlLk6GJQsqaUBKTNV-1" source="rG0EDbp5dYGCMiRSjRll-29" target="rG0EDbp5dYGCMiRSjRll-20">
          <mxGeometry relative="1" as="geometry" />
        </mxCell>
        <mxCell id="rG0EDbp5dYGCMiRSjRll-33" style="edgeStyle=orthogonalEdgeStyle;rounded=0;orthogonalLoop=1;jettySize=auto;html=1;entryX=0;entryY=1;entryDx=0;entryDy=0;" edge="1" parent="WIyWlLk6GJQsqaUBKTNV-1" source="rG0EDbp5dYGCMiRSjRll-29" target="6TVAX0fbJn5HLJftzAtB-69">
          <mxGeometry relative="1" as="geometry">
            <mxPoint x="-490" y="1570" as="targetPoint" />
          </mxGeometry>
        </mxCell>
        <mxCell id="rG0EDbp5dYGCMiRSjRll-29" value="Fetch events" style="ellipse;whiteSpace=wrap;html=1;aspect=fixed;" vertex="1" parent="WIyWlLk6GJQsqaUBKTNV-1">
          <mxGeometry x="-320" y="1530" width="80" height="80" as="geometry" />
        </mxCell>
      </root>
    </mxGraphModel>
  </diagram>
</mxfile>
